{
    "asset" : {
        "generator" : "Khronos glTF Blender I/O v1.8.19",
        "version" : "2.0"
    },
    "scene" : 0,
    "scenes" : [
        {
            "name" : "Scene",
            "nodes" : [
                2,
                5
            ]
        }
    ],
    "nodes" : [
        {
            "name" : "Object_2"
        },
        {
            "children" : [
                0
            ],
            "name" : "SpeakerSubDes.obj.cleaner.materialmerger.gles",
            "translation" : [
                -16.46576499938965,
                -39.59978485107422,
                -23.472280502319336
            ]
        },
        {
            "children" : [
                1
            ],
            "name" : "Sketchfab_model",
            "rotation" : [
                -0.7071068286895752,
                0,
                0,
                0.7071068286895752
            ],
            "scale" : [
                0.05026594176888466,
                0.05026594549417496,
                0.05026594549417496
            ],
            "translation" : [
                0,
                1.135671854019165,
                -1.303919792175293
            ]
        },
        {
            "mesh" : 0,
            "name" : "Object_2.001"
        },
        {
            "children" : [
                3
            ],
            "name" : "a0cb298b272149f381715b7f70205605.obj.cleaner.materialmerger.gle"
        },
        {
            "children" : [
                4
            ],
            "name" : "Sketchfab_model.001",
            "rotation" : [
                -0.7071068286895752,
                0,
                0,
                0.7071068286895752
            ],
            "scale" : [
                0.04959368705749512,
                0.04959368705749512,
                0.04959368705749512
            ]
        }
    ],
    "materials" : [
        {
            "doubleSided" : true,
            "name" : "material_0",
            "normalTexture" : {
                "index" : 0
            },
            "pbrMetallicRoughness" : {
                "baseColorTexture" : {
                    "index" : 1
                },
                "metallicFactor" : 0,
                "roughnessFactor" : 0.9076558351516724
            }
        }
    ],
    "meshes" : [
        {
            "name" : "Object_0.001",
            "primitives" : [
                {
                    "attributes" : {
                        "POSITION" : 0,
                        "NORMAL" : 1,
                        "TEXCOORD_0" : 2
                    },
                    "indices" : 3,
                    "material" : 0
                }
            ]
        }
    ],
    "textures" : [
        {
            "sampler" : 0,
            "source" : 0
        },
        {
            "sampler" : 0,
            "source" : 1
        }
    ],
    "images" : [
        {
            "bufferView" : 4,
            "mimeType" : "image/png",
            "name" : "material_0_normal"
        },
        {
            "bufferView" : 5,
            "mimeType" : "image/jpeg",
            "name" : "material_0_baseColor"
        }
    ],
    "accessors" : [
        {
            "bufferView" : 0,
            "componentType" : 5126,
            "count" : 1105,
            "max" : [
                9.396356582641602,
                9.127573013305664,
                9.635234832763672
            ],
            "min" : [
                -11.91673755645752,
                -11.210851669311523,
                -0.060139000415802
            ],
            "type" : "VEC3"
        },
        {
            "bufferView" : 1,
            "componentType" : 5126,
            "count" : 1105,
            "type" : "VEC3"
        },
        {
            "bufferView" : 2,
            "componentType" : 5126,
            "count" : 1105,
            "type" : "VEC2"
        },
        {
            "bufferView" : 3,
            "componentType" : 5123,
            "count" : 5445,
            "type" : "SCALAR"
        }
    ],
    "bufferViews" : [
        {
            "buffer" : 0,
            "byteLength" : 13260,
            "byteOffset" : 0
        },
        {
            "buffer" : 0,
            "byteLength" : 13260,
            "byteOffset" : 13260
        },
        {
            "buffer" : 0,
            "byteLength" : 8840,
            "byteOffset" : 26520
        },
        {
            "buffer" : 0,
            "byteLength" : 10890,
            "byteOffset" : 35360
        },
        {
            "buffer" : 0,
            "byteLength" : 2048433,
            "byteOffset" : 46252
        },
        {
            "buffer" : 0,
            "byteLength" : 898612,
            "byteOffset" : 2094688
        }
    ],
    "samplers" : [
        {
            "magFilter" : 9729,
            "minFilter" : 9987
        }
    ],
    "buffers" : [
        {
            "byteLength" : 2993300,
            "uri" : "data:application/octet-stream;base64,"
        }
    ]
}
