{
    "asset" : {
        "generator" : "Khronos glTF Blender I/O v1.8.19",
        "version" : "2.0"
    },
    "extensionsUsed" : [
        "KHR_materials_transmission"
    ],
    "scene" : 0,
    "scenes" : [
        {
            "name" : "Scene",
            "nodes" : [
                0,
                1,
                2
            ]
        }
    ],
    "nodes" : [
        {
            "mesh" : 0,
            "name" : "Cube",
            "scale" : [
                0.9743672609329224,
                1,
                0.8758463263511658
            ],
            "translation" : [
                0,
                1.350846767425537,
                0.013225167989730835
            ]
        },
        {
            "mesh" : 1,
            "name" : "Cylinder.002",
            "scale" : [
                0.28687113523483276,
                0.0341007336974144,
                0.2810749411582947
            ],
            "translation" : [
                -0.0020325463265180588,
                2.4374871253967285,
                0.013433537445962429
            ]
        },
        {
            "mesh" : 2,
            "name" : "nectar club",
            "rotation" : [
                0.5,
                0.5,
                -0.5,
                0.4999999701976776
            ],
            "scale" : [
                0.6734479069709778,
                0.36164435744285583,
                0.36164435744285583
            ],
            "translation" : [
                0.30106016993522644,
                2.655780792236328,
                0.003584042191505432
            ]
        }
    ],
    "materials" : [
        {
            "alphaMode" : "BLEND",
            "doubleSided" : true,
            "extensions" : {
                "KHR_materials_transmission" : {
                    "transmissionFactor" : 1
                }
            },
            "name" : "Material.001",
            "pbrMetallicRoughness" : {
                "baseColorFactor" : [
                    0.800000011920929,
                    0.800000011920929,
                    0.800000011920929,
                    1
                ],
                "metallicFactor" : 0,
                "roughnessFactor" : 0
            }
        },
        {
            "alphaMode" : "BLEND",
            "doubleSided" : true,
            "name" : "guarito",
            "pbrMetallicRoughness" : {
                "baseColorTexture" : {
                    "index" : 0
                },
                "metallicFactor" : 0,
                "roughnessFactor" : 0.5
            }
        },
        {
            "doubleSided" : true,
            "name" : "Material.002",
            "pbrMetallicRoughness" : {
                "baseColorFactor" : [
                    0.027320899069309235,
                    0.12213879823684692,
                    0.025186864659190178,
                    1
                ],
                "metallicFactor" : 0.45652174949645996,
                "roughnessFactor" : 0.22826087474822998
            }
        },
        {
            "alphaMode" : "BLEND",
            "doubleSided" : true,
            "name" : "nectar club",
            "pbrMetallicRoughness" : {
                "baseColorTexture" : {
                    "index" : 1
                },
                "metallicFactor" : 0,
                "roughnessFactor" : 0.5
            }
        }
    ],
    "meshes" : [
        {
            "name" : "Cube.001",
            "primitives" : [
                {
                    "attributes" : {
                        "POSITION" : 0,
                        "NORMAL" : 1,
                        "TEXCOORD_0" : 2
                    },
                    "indices" : 3,
                    "material" : 0
                },
                {
                    "attributes" : {
                        "POSITION" : 4,
                        "NORMAL" : 5,
                        "TEXCOORD_0" : 6
                    },
                    "indices" : 7,
                    "material" : 1
                }
            ]
        },
        {
            "name" : "Cylinder.002",
            "primitives" : [
                {
                    "attributes" : {
                        "POSITION" : 8,
                        "NORMAL" : 9,
                        "TEXCOORD_0" : 10
                    },
                    "indices" : 11,
                    "material" : 2
                }
            ]
        },
        {
            "name" : "nectar club",
            "primitives" : [
                {
                    "attributes" : {
                        "POSITION" : 12,
                        "NORMAL" : 13,
                        "TEXCOORD_0" : 14
                    },
                    "indices" : 15,
                    "material" : 3
                }
            ]
        }
    ],
    "textures" : [
        {
            "sampler" : 0,
            "source" : 0
        },
        {
            "sampler" : 0,
            "source" : 1
        }
    ],
    "images" : [
        {
            "bufferView" : 8,
            "mimeType" : "image/png",
            "name" : "guarito"
        },
        {
            "bufferView" : 17,
            "mimeType" : "image/png",
            "name" : "nectar club"
        }
    ],
    "accessors" : [
        {
            "bufferView" : 0,
            "componentType" : 5126,
            "count" : 17728,
            "max" : [
                0.5153505206108093,
                1.8975586891174316,
                0.9834039807319641
            ],
            "min" : [
                -0.5263214111328125,
                -1.9087468385696411,
                -0.9752822518348694
            ],
            "type" : "VEC3"
        },
        {
            "bufferView" : 1,
            "componentType" : 5126,
            "count" : 17728,
            "type" : "VEC3"
        },
        {
            "bufferView" : 2,
            "componentType" : 5126,
            "count" : 17728,
            "type" : "VEC2"
        },
        {
            "bufferView" : 3,
            "componentType" : 5123,
            "count" : 26892,
            "type" : "SCALAR"
        },
        {
            "bufferView" : 4,
            "componentType" : 5126,
            "count" : 4,
            "max" : [
                0.5386089086532593,
                0.48819631338119507,
                1.2395843267440796
            ],
            "min" : [
                0.5385735034942627,
                -1.695974588394165,
                -1.2542238235473633
            ],
            "type" : "VEC3"
        },
        {
            "bufferView" : 5,
            "componentType" : 5126,
            "count" : 4,
            "type" : "VEC3"
        },
        {
            "bufferView" : 6,
            "componentType" : 5126,
            "count" : 4,
            "type" : "VEC2"
        },
        {
            "bufferView" : 7,
            "componentType" : 5123,
            "count" : 6,
            "type" : "SCALAR"
        },
        {
            "bufferView" : 9,
            "componentType" : 5126,
            "count" : 1450,
            "max" : [
                1.0460383892059326,
                25.187549591064453,
                1.092609167098999
            ],
            "min" : [
                -1.0460383892059326,
                -1,
                -1.1178290843963623
            ],
            "type" : "VEC3"
        },
        {
            "bufferView" : 10,
            "componentType" : 5126,
            "count" : 1450,
            "type" : "VEC3"
        },
        {
            "bufferView" : 11,
            "componentType" : 5126,
            "count" : 1450,
            "type" : "VEC2"
        },
        {
            "bufferView" : 12,
            "componentType" : 5123,
            "count" : 2460,
            "type" : "SCALAR"
        },
        {
            "bufferView" : 13,
            "componentType" : 5126,
            "count" : 16383,
            "max" : [
                0.3795604705810547,
                -0.03265100717544556,
                0.5092437267303467
            ],
            "min" : [
                -0.39372482895851135,
                -0.4564639627933502,
                -0.5051223039627075
            ],
            "type" : "VEC3"
        },
        {
            "bufferView" : 14,
            "componentType" : 5126,
            "count" : 16383,
            "type" : "VEC3"
        },
        {
            "bufferView" : 15,
            "componentType" : 5126,
            "count" : 16383,
            "type" : "VEC2"
        },
        {
            "bufferView" : 16,
            "componentType" : 5123,
            "count" : 24576,
            "type" : "SCALAR"
        }
    ],
    "bufferViews" : [
        {
            "buffer" : 0,
            "byteLength" : 212736,
            "byteOffset" : 0
        },
        {
            "buffer" : 0,
            "byteLength" : 212736,
            "byteOffset" : 212736
        },
        {
            "buffer" : 0,
            "byteLength" : 141824,
            "byteOffset" : 425472
        },
        {
            "buffer" : 0,
            "byteLength" : 53784,
            "byteOffset" : 567296
        },
        {
            "buffer" : 0,
            "byteLength" : 48,
            "byteOffset" : 621080
        },
        {
            "buffer" : 0,
            "byteLength" : 48,
            "byteOffset" : 621128
        },
        {
            "buffer" : 0,
            "byteLength" : 32,
            "byteOffset" : 621176
        },
        {
            "buffer" : 0,
            "byteLength" : 12,
            "byteOffset" : 621208
        },
        {
            "buffer" : 0,
            "byteLength" : 799777,
            "byteOffset" : 621220
        },
        {
            "buffer" : 0,
            "byteLength" : 17400,
            "byteOffset" : 1421000
        },
        {
            "buffer" : 0,
            "byteLength" : 17400,
            "byteOffset" : 1438400
        },
        {
            "buffer" : 0,
            "byteLength" : 11600,
            "byteOffset" : 1455800
        },
        {
            "buffer" : 0,
            "byteLength" : 4920,
            "byteOffset" : 1467400
        },
        {
            "buffer" : 0,
            "byteLength" : 196596,
            "byteOffset" : 1472320
        },
        {
            "buffer" : 0,
            "byteLength" : 196596,
            "byteOffset" : 1668916
        },
        {
            "buffer" : 0,
            "byteLength" : 131064,
            "byteOffset" : 1865512
        },
        {
            "buffer" : 0,
            "byteLength" : 49152,
            "byteOffset" : 1996576
        },
        {
            "buffer" : 0,
            "byteLength" : 67307,
            "byteOffset" : 2045728
        }
    ],
    "samplers" : [
        {
            "magFilter" : 9729,
            "minFilter" : 9987,
            "wrapS" : 33071,
            "wrapT" : 33071
        }
    ],
    "buffers" : [
        {
            "byteLength" : 2113036,
            "uri" : "data:application/octet-stream;base64,"
        }
    ]
}
